**ABCDEFGHIJKLMNOPQRSTUVWXYZabcdefghijklmnopqrstuvwxyz**************************
**PARASOLID !"#$%&'()*+,-./:;<=>?@[\]^_`{|}~0123456789**************************
**PART1;
MC=AMD64;
MC_MODEL=Intel64 Family 6 Model 158 Stepping 10, GenuineIntel;
MC_ID=unknown;
OS=Windows_NT;
OS_RELEASE=unknown;
FRU=Parasolid Version 33.1, build 260,  4-25-2022;
APPL=SOLIDWORKS 2022-2022290;
SITE=;
USER=unknown;
FORMAT=text;
GUISE=transmit;
KEY=FILESDS Tube Plug, 2 X 1, 0.0625.x_t;
DATE=Fri Nov  1 15:28:53 2024;
**PART2;
SCH=SCH_3301260_33103;
USFLD_SIZE=0;
**PART3;
**END_OF_HEADER*****************************************************************
T51 : TRANSMIT FILE created by modeller version 330126023 SCH_3301260_33103_1300
6230 0 12 35 CCCI7 lattice222 0 CCCI4 mesh1006 0 I8 polyline1008 0 CCCCCCCDI5 ow
ner1040 0 CCCCCCI13 boundary_mesh1006 0 I17 boundary_polyline1008 0 CCCA16 index
_map_offset0 0 1 dA9 index_map82 0 A17 node_id_index_map82 0 A20 schema_embeddin
g_map82 0 A5 child12 0 A14 lowest_node_id0 0 1 dA16 mesh_offset_data206 0 Z1 156
835 2 3 0 4 5 0 0 0 0 1e3 1e-8 0 6 0 1 0 1 1 7 8 9 10 0 0 11 12 13 0 0 0 0 0 0 0
 81 255 2 2 156803 14 1 15 0 0 0 0 16 70 11 CI9 list_type0 0 1 uI10 notransmit0
 0 1 lCCCDCCDI12 finger_index0 0 1 dI12 finger_block1012 0 CZ3 0 4 T1 0 0 7 20 1
 17 17 50 255 4 270 0 1 18 0 0 +0 .0047625 0 0 -1 0 0 0 -1 133 255 5 114701 0 1
 19 0 0 +20 .0078105 0 -.0236855 -.0078105 0 -.0236855 -.018796 -.003175 13 255
 7 99 0 1 0 21 0 0 22 0 51 255 8 1383 0 23 24 0 0 +.0078105 .01905 .0205105 0 -1
 0 .003175 0 0 -1 30 255 9 1290 0 12 25 0 0 -.0109855 .01905 -.0205105 0 -1 0 29
 255 10 1252 0 13 26 0 -.0078105 .01905 -.0236855 19 8 CCCCCCCA5 owner12 0 Z11 3
3 0 1 22 0 27 V0 16 255 12 1288 0 ?28 0 29 9 0 0 1 18 255 13 1250 0 30 0 31 10 ?
1 17 255 30 0 32 33 34 13 35 36 0 37 +18 31 1247 0 38 13 39 26 ?1 17 38 0 40 37
 41 31 42 43 0 33 +18 39 1244 0 28 31 44 45 ?1 29 26 1249 0 31 45 10 .0078105 .0
1905 -.0236855 29 45 1246 0 39 46 26 .0109855 .01905 -.0205105 29 46 1243 0 44 4
7 45 .0109855 .01905 .0205105 18 44 1241 0 48 39 49 46 ?1 29 47 1230 0 49 50 46
 -.0109855 .01905 .0205105 18 49 1228 0 51 44 52 47 ?1 29 50 1227 0 52 53 47 -.0
109855 .01905 -.0205105 18 52 1225 0 54 49 55 50 ?1 29 53 1204 0 55 56 50 -.0078
105 0 -.0236855 18 55 1202 0 57 52 58 53 ?1 29 56 1201 0 58 59 53 .0078105 0 -.0
236855 18 58 1199 0 60 55 61 56 ?1 29 59 1198 0 61 62 56 -.0109855 0 .0205105 18
 61 1196 0 63 58 64 59 ?1 29 62 1195 0 64 65 59 -.0109855 0 -.0205105 18 64 1193
 0 66 61 67 62 ?1 29 65 1192 0 67 68 62 .0109855 0 -.0205105 18 67 1190 0 69 64
 70 65 ?1 29 68 1189 0 70 71 65 .0109855 0 .0205105 18 70 1187 0 72 67 73 68 ?1
 29 71 1176 0 73 74 68 .0078105 .01905 .0236855 18 73 1174 0 75 70 76 71 ?1 29 7
4 1173 0 76 77 71 -.0078105 .01905 .0236855 18 76 1171 0 78 73 79 74 ?1 29 77 11
70 0 79 80 74 .0078105 0 .0236855 18 79 1168 0 81 76 82 77 ?1 29 80 1167 0 82 83
 77 -.0078105 0 .0236855 18 82 1165 0 84 79 85 80 ?1 29 83 896 0 85 86 80 .00622
3 .01130554231329882 .0141605 18 85 894 0 87 82 88 83 ?1 29 86 885 0 88 89 83 -.
006223 .01409445768670118 .0141605 18 88 883 0 90 85 91 86 ?1 29 89 875 0 91 92
 86 -.006223 .01130554231329882 -.0141605 18 91 873 0 93 88 94 89 ?1 29 92 864 0
 94 95 89 .006223 .0140944576867012 -.0141605 18 94 862 0 96 91 97 92 ?1 29 95 7
20 0 97 98 92 -.0014605 .01130554231329882 .018923 18 97 718 0 99 94 100 95 ?1 2
9 98 699 0 100 101 95 .0014605 .01130554231329882 -.018923 18 100 697 0 102 97 1
03 98 ?1 29 101 551 0 103 104 98 -.0014605 .01905 -.018923 18 103 549 0 105 100
 106 101 ?1 29 104 548 0 106 107 101 .0014605 .01905 -.018923 18 106 546 0 108 1
03 109 104 ?1 29 107 535 0 109 110 104 -.006223 .01905 .0141605 18 109 533 0 111
 106 112 107 ?1 29 110 532 0 112 113 107 -.006223 .01905 -.0141605 18 112 530 0
 114 109 115 110 ?1 29 113 509 0 115 116 110 -.006223 .0047625 .0141605 18 115 5
07 0 117 112 118 113 ?1 29 116 506 0 118 119 113 -.006223 .0047625 -.0141605 18
 118 504 0 120 115 121 116 ?1 29 119 503 0 121 122 116 -.0014605 .0047625 -.0189
23 18 121 501 0 123 118 124 119 ?1 29 122 500 0 124 125 119 .0014605 .0047625 -.
018923 18 124 498 0 126 121 127 122 ?1 29 125 487 0 127 128 122 .0014605 .004762
5 .018923 18 127 485 0 129 124 130 125 ?1 29 128 484 0 130 131 125 -.0014605 .00
47625 .018923 18 130 482 0 132 127 133 128 ?1 29 131 481 0 133 134 128 .0014605
 .01905 .018923 18 133 479 0 135 130 136 131 ?1 29 134 478 0 136 137 131 -.00146
05 .01905 .018923 18 136 476 0 138 133 139 134 ?1 29 137 465 0 139 140 134 .0062
23 .0047625 -.0141605 18 139 463 0 141 136 142 137 ?1 29 140 462 0 142 143 137 .
006223 .0047625 .0141605 18 142 460 0 144 139 145 140 ?1 29 143 459 0 145 146 14
0 .006223 .01905 -.0141605 18 145 457 0 147 142 148 143 ?1 29 146 456 0 148 149
 143 .006223 .01905 .0141605 18 148 454 0 150 145 151 146 ?1 29 149 822 0 151 15
2 146 .0014605 .01409445768670118 .018923 18 151 781 0 153 148 154 149 ?1 29 152
 823 0 154 155 149 .0014605 .01130554231329882 .018923 18 154 785 0 156 151 157
 152 ?1 29 155 825 0 157 158 152 -.0014605 .0140944576867012 .018923 18 157 782
 0 159 154 160 155 ?1 29 158 826 0 160 161 155 -.0014605 .01409445768670118 -.01
8923 18 160 783 0 162 157 163 158 ?1 29 161 827 0 163 164 158 -.0014605 .0113055
4231329882 -.018923 18 163 787 0 165 160 166 161 ?1 29 164 829 0 166 167 161 .00
14605 .01409445768670118 -.018923 18 166 784 0 168 163 169 164 ?1 29 167 1098 0
 169 170 164 .006223 .01409445768670118 .0141605 18 169 1014 0 171 166 172 167 ?
1 29 170 1100 0 172 173 167 -.006223 .01130554231329882 .0141605 18 172 1015 0 1
74 169 175 170 ?1 29 173 1102 0 175 176 170 -.006223 .01409445768670118 -.014160
5 18 175 978 0 177 172 178 173 ?1 29 176 1104 0 178 0 173 .006223 .0113055423132
9882 -.0141605 18 178 979 0 179 175 0 176 ?1 17 179 0 180 96 96 178 181 182 0 18
3 -15 255 180 991 0 179 184 0 17 96 0 180 179 179 94 183 185 0 181 -17 181 0 186
 187 188 94 179 182 0 189 +16 182 868 0 ?181 190 191 192 0 0 1 17 183 0 193 141
 189 178 96 185 0 188 +15 193 375 0 189 194 0 17 141 0 193 195 183 139 188 196 0
 197 +17 189 0 193 183 198 94 187 199 0 0 +16 185 974 0 ?183 200 201 202 0 0 1 1
7 188 0 186 181 203 178 141 196 0 0 -15 186 661 0 188 204 0 17 203 0 186 188 205
 139 126 206 0 0 -16 196 866 0 ?141 199 207 208 199 199 1 16 199 466 0 ?189 209
 196 208 196 196 1 16 207 1172 0 ?210 196 211 212 0 0 1 30 208 468 0 199 213 214
 0 -.006223 .0047625 -.0141605 0 1 0 31 255 213 274 0 215 216 208 0 +31048539297
3482e-32 .0047625 .0127 0 -1 0 0 0 -1 .0020193 30 214 473 0 217 208 218 0 +.0062
23 .01905 .0141605 0 1 0 16 217 471 0 ?219 220 209 214 209 209 1 30 218 490 0 22
1 214 222 0 +-.0014605 .01905 .018923 0 1 0 16 221 488 0 ?223 224 220 218 220 22
0 1 30 222 495 0 225 218 226 0 -.0014605 .0047625 .018923 0 1 0 16 225 493 0 ?22
7 206 224 222 224 224 1 31 226 512 0 206 222 228 0 -.0014605 .0047625 -.0141605
 0 -1 0 0 0 -1 .0047625 16 206 510 0 ?126 229 225 226 0 0 1 31 228 517 0 229 226
 230 0 --.0014605 .0047625 -.0141605 0 -1 0 0 0 -1 .0047625 16 229 515 0 ?120 23
1 206 228 0 0 1 31 230 522 0 231 228 232 0 --.0014605 .0047625 .0141605 0 -1 0 0
 0 -1 .0047625 16 231 520 0 ?132 233 229 230 0 0 1 31 232 527 0 233 230 234 0 -.
0014605 .0047625 .0141605 0 -1 0 0 0 -1 .0047625 16 233 525 0 ?144 235 231 232 0
 0 1 30 234 538 0 236 232 237 0 +-.006223 .01905 -.0141605 0 1 0 16 236 536 0 ?2
38 239 235 234 235 235 1 30 237 543 0 240 234 241 0 --.006223 .0047625 .0141605
 0 1 0 16 240 541 0 ?242 243 239 237 239 239 1 30 241 554 0 244 237 245 0 +.0014
605 .01905 -.018923 0 1 0 16 244 552 0 ?246 247 243 241 243 243 1 30 245 559 0 2
48 241 249 0 --.0014605 .0047625 -.018923 0 1 0 16 248 557 0 ?250 251 247 245 24
7 247 1 31 249 578 0 251 245 252 0 +.0014605 .01905 .0141605 0 -1 0 0 0 -1 .0047
625 16 251 562 0 ?135 253 248 249 0 0 1 31 252 579 0 253 249 254 0 +-.0014605 .0
1905 .0141605 0 -1 0 0 0 -1 .0047625 16 253 566 0 ?111 255 251 252 0 0 1 31 254
 580 0 255 252 256 0 +-.0014605 .01905 -.0141605 0 -1 0 0 0 -1 .0047625 16 255 5
70 0 ?105 257 253 254 0 0 1 31 256 581 0 257 254 258 0 +.0014605 .01905 -.014160
5 0 -1 0 0 0 -1 .0047625 16 257 574 0 ?147 191 255 256 0 0 1 38 12 CCCCCCCCCCCA1
7 intersection_data204 0 Z258 705 0 191 256 192 0 +259 260 261 262 263 264 16 19
1 703 0 ?265 182 257 258 0 0 1 38 192 870 0 182 258 266 0 +259 267 268 269 269 2
70 51 259 672 0 204 271 272 273 +.0014605 -.0398399627509866 -.0141605 0 -1 0 .0
047625 0 0 -1 51 260 812 0 274 275 276 277 +0 .0127 -.0236855 0 0 1 .0020193 1 0
 0 40 255 6 261 0 1 6 .0001143788523655406 .338704443793083 ??.0014605 .01409445
768670118 -.018923 .001839181957829755 .01353365593382012 -.01890792100774875 .0
02011311257689385 .01287944223218618 -.01889104047740875 .00195760995423981 .012
2046862034415 -.0188969847665115 .0016856566690151 .01158818432993372 -.01891767
46577562 .0014605 .01130554231329882 -.018923 41 3 CI8 term_use0 0 1 cCZ1 262 L?
.0014605 .01409445768670118 -.018923 41 1 263 L?.0014605 .01130554231329882 -.01
8923 204 2 17 INTERSECTION_DATA17 Intersection data7 uv_type0 0 1 u6 values0 1 1
 fT24 264 4 0 -.0539344204376878 .76226978662262 .0047625 .0795972965211163 -.05
33736186848067 .42557440851291 .00477757899225124 .1159153127651514 -.0527194049
831728 .0889809554700673 .00479445952259125 .1045705183659116 -.0520446489544281
 6.03536664067037 .00478851523348848 .0472946201829629 -.0514281470809203 5.7001
0895024093 .00476782534224378 455307998944044e-30 -.0511455050642854 5.520915520
55697 .0047625 14 255 274 789 278 ?184 279 280 7 260 -279 279 184 279 27 51 275
 1075 0 281 267 260 0 +-.0109855 .0127 0 1 0 0 .0020193 0 0 -1 50 276 394 0 282
 260 283 0 +-.006223 -.0398399627509866 .018923 0 0 1 1 0 0 141 255 277 258 284
 285 260 141 284 286 287 277 260 141 285 288 277 287 260 38 288 818 0 289 290 29
1 0 +271 260 292 293 294 295 141 287 291 285 284 260 38 291 817 0 296 288 297 0
 +298 260 299 300 301 302 16 296 770 0 ?303 304 289 291 0 0 1 31 297 816 0 304 2
91 286 0 +0 .0127 .018923 0 0 1 1 0 0 .0020193 51 298 630 0 305 306 271 307 +-.0
014605 -.0398399627509866 .0141605 0 -1 0 .0047625 0 0 -1 40 6 299 0 1 6 .000114
3788523655422 .338704443793083 ??-.0014605 .0140944576867012 .018923 -.001839181
957829755 .01353365593382014 .01890792100774875 -.00201131125768938 .01287944223
21862 .01889104047740875 -.001957609954239815 .0122046862034415 .018896984766511
5 -.0016856566690151 .01158818432993372 .0189176746577562 -.0014605 .01130554231
329882 .018923 41 1 300 L?-.0014605 .0140944576867012 .018923 41 1 301 L?-.00146
05 .01130554231329882 .018923 204 24 302 4 3.141592653589795 -.0539344204376878
 2.37932286696717 .0426085 3.22118995011091 -.0533736186848067 2.71601824507688
 .04259342100774875 3.257507966354945 -.0527194049831728 3.052611698119725 .0425
7654047740875 3.246163171955705 -.0520446489544281 3.38941132009901 .04258248476
65115 3.188887273772755 -.0514281470809203 3.72466901052845 .0426031746577562 3.
141592653589795 -.0511455050642854 3.903862440212415 .0426085 14 305 618 308 ?30
9 310 311 7 298 -0 0 309 310 27 51 306 609 0 310 312 298 313 +.0014605 -.0398399
627509866 .0141605 0 -1 0 .0047625 0 0 -1 51 271 651 0 309 298 259 314 +-.001460
5 -.0398399627509866 -.0141605 0 -1 0 .0047625 0 0 -1 141 307 291 315 315 298 14
1 315 266 307 307 298 38 266 891 0 190 192 316 0 +298 317 318 319 319 320 16 190
 889 0 ?321 322 182 266 0 0 1 31 316 907 0 323 266 324 0 +-.006223 .0127 0 -1 0
 0 0 0 1 .0020193 51 317 1081 0 325 0 267 326 +-.0109855 .0127 .0127 1 0 0 .0020
193 0 0 -1 40 21 318 0 1 21 .000171939772201502 .399999646882715 ??-.00471202244
49479 .0127 .0106807 -.00478966150961682 .01215762490757336 .01075490315173892 -
.00498245588243698 .0116843931921382 .0109546876205605 -.00536198441734834 .0111
3069414933732 .01142923187123854 -.00574491997447041 .01077797919977894 .0120808
000859838 -.00604297783415201 .01068732712369436 .01286346370540162 -.0061826537
248076 .01086457552871802 .0135418963714254 -.00622222961344645 .011221019711174
54 .01407484173462466 -.00621283913711338 .01173067052201744 .0144714324297342 -
.00619333487365246 .01236451057152966 .0146912356297999 -.00619346899367124 .013
04252046042862 .01469003824691582 -.00621314724594905 .0136779519198425 .0144666
8688014496 -.00622156108765392 .01420756342927836 .01404343775319234 -.006173620
52172528 .0145640470883597 .01347646696154938 -.00604274208573609 .0147127403259
8322 .01286263108608422 -.00582722703609401 .01467070910129892 .0122596840588196
 -.00552443259397735 .01444121562934032 .0116773853990183 -.00514521171872908 .0
1398601699017686 .0111431657792249 -.00485371813582777 .01343373524979704 .01081
872248905026 -.00472848188660827 .0129493379233048 .0106961529274912 -.004712022
4449479 .0127 .0106807 41 1 319 H?-.0047120224449479 .0127 .0106807 204 84 320 4
 5.53168688714746 -.0525399627509866 0 .0062734775550521 5.50913603753559 -.0519
9758765856 6.01125055028543 .00619583849038317 5.45083084234472 -.05152435594312
48 5.75617687502417 .00600304411756302 5.32315434301183 -.0509706569003239 5.393
05557645001 .00562351558265166 5.16429653824216 -.0506179419507656 5.02405085410
395 .00524058002552959 4.9882168214507 -.050527289874681 4.63134962819792 .00494
252216584798 4.84264754962105 -.0507045382797046 4.2823295071713 .00480284627519
239 4.73037593773801 -.0510609824621611 3.96346554003695 .00476327038655355 4.64
705486072032 -.051570633273004 3.642284328917325 .00477266086288662 4.6007164662
0441 -.0522044733225163 3.308508089080795 .00479216512634754 4.60096945747583 -.
0528824832114152 2.971145170384195 .00479203100632876 4.64805339959322 -.0535179
146708291 2.63602696241645 .00477235275405095 4.73697145549667 -.054047526180265
 2.298690224606425 .00476393891234608 4.85651643343011 -.0544040098393463 1.9654
87186952685 .00481187947827472 4.988398522435 -.0545527030769698 1.6514219975712
4 .0049427579142639 5.12294745824038 -.0545106718522855 1.35097653799824 .005158
27296390598 5.26086675876037 -.0542811783803269 1.039767973580354 .0054610674060
2265 5.39853615803316 -.0538259797411635 .690422230891348 .00584028828127091 5.4
901494811424 -.0532736980007837 .371873154194388 .00613178186417223 5.5269463738
3033 -.0527893006742914 .1237933470775652 .00625701811339173 5.53168688714746 -.
0525399627509866 0 .0062734775550521 14 325 1018 327 ?328 329 330 7 317 -329 329
 328 329 27 51 267 1078 0 331 317 275 332 +-.0109855 .0127 -.0127 1 0 0 .0020193
 0 0 -1 141 326 266 333 333 317 141 333 334 326 326 317 38 334 1086 0 335 336 33
7 0 +306 317 338 339 339 340 16 335 1004 0 ?341 342 343 334 0 0 1 31 336 1087 0
 343 344 334 0 +-.006223 .0127 .0127 -1 0 0 0 0 1 .0020193 31 337 1085 0 342 334
 345 0 +.006223 .0127 .0127 1 0 0 0 0 -1 .0020193 40 21 338 0 1 21 .000171939772
2015035 .399999646882716 ??.0047120224449479 .0127 .0106807 .00478966150961683 .
01324237509242664 .01075490315173892 .00498245588243698 .0137156068078618 .01095
46876205605 .00536198441734834 .01426930585066268 .01142923187123854 .0057449199
7447041 .01462202080022104 .0120808000859838 .00604297783415201 .014712672876305
62 .01286346370540162 .00618265372480761 .014535424471282 .0135418963714254 .006
22222961344645 .01417898028882546 .01407484173462466 .00621283913711338 .0136693
2947798256 .0144714324297342 .00619333487365246 .01303548942847034 .014691235629
7999 .00619346899367124 .01235747953957138 .01469003824691582 .00621314724594905
 .0117220480801575 .01446668688014496 .00622156108765392 .01119243657072164 .014
04343775319234 .00617362052172529 .0108359529116403 .01347646696154938 .00604274
20857361 .01068725967401676 .01286263108608422 .00582722703609402 .0107292908987
0106 .0122596840588196 .00552443259397735 .01095878437065966 .0116773853990183 .
00514521171872909 .01141398300982312 .0111431657792249 .00485371813582777 .01196
626475020296 .01081872248905024 .00472848188660827 .01245066207669522 .010696152
9274912 .0047120224449479 .0127 .0106807 41 1 339 H?.0047120224449479 .0127 .010
6807 204 84 340 4 .75149842003213 -.0525399627509866 0 .0156975224449479 .774049
269643997 -.0530823378434132 .2719347568941575 .0157751615096168 .83235446483486
8 -.0535555695588484 .527008432155412 .01596795588243695 .960030964167751 -.0541
092686016493 .890129730729577 .01634748441734835 1.118888768937424 -.05446198355
12076 1.259134453075636 .0167304199744704 1.29496848572888 -.0545526356272922 1.
651835678981665 .017028477834152 1.440537757558536 -.0543753872222686 2.00085580
0008285 .0171681537248076 1.55280936944158 -.0540189430398121 2.319719767142635
 .01720772961344645 1.63613044645927 -.0535092922289692 2.64090097826226 .017198
3391371134 1.68246884097518 -.0528754521794569 2.97467721809879 .017178834873652
45 1.68221584970376 -.052197442290558 3.31204013679539 .01717896899367125 1.6351
3190758637 -.0515620108311441 3.647158344763135 .01719864724594905 1.54621385168
2915 -.0510323993217082 3.98449508257316 .0172070610876539 1.426668873749478 -.0
506759156626269 4.3176981202269 .0171591205217253 1.294786784744586 -.0505272224
250034 4.63176330960835 .0170282420857361 1.16023784893921 -.0505692536496877 4.
93220876918135 .016812727036094 1.022318548419218 -.0507987471216463 5.243417333
59923 .01650993259397735 .884649149146427 -.0512539457608097 5.59276307628824 .0
161307117187291 .793035826037188 -.0518062275011896 5.9113121529852 .01583921813
582775 .756238933349259 -.0522906248276818 6.15939196010202 .01571398188660825 .
75149842003213 -.0525399627509866 0 .0156975224449479 16 342 1005 0 ?346 323 335
 337 0 0 1 31 345 1084 0 347 337 348 0 +.006223 .0127 0 1 0 0 0 0 -1 .0020193 16
 347 1040 0 ?349 350 323 345 0 0 1 31 348 821 0 350 345 351 0 +0 .0127 .0236855
 0 0 1 1 0 0 .0020193 16 350 778 0 ?352 353 347 348 0 0 1 31 351 820 0 353 348 2
90 0 +0 .0127 -.0236855 0 0 1 1 0 0 .0020193 16 353 771 0 ?354 355 350 351 0 0 1
 31 290 819 0 355 351 288 0 +0 .0127 -.018923 0 0 -1 -1 0 0 .0020193 16 355 774
 0 ?356 357 353 290 357 357 1 17 356 0 358 123 246 163 102 355 0 359 +16 357 776
 0 ?360 289 355 290 355 355 1 17 360 0 361 108 250 166 162 357 0 362 +16 289 775
 0 ?363 296 357 288 0 0 1 17 363 0 364 365 359 160 165 289 0 250 +15 364 640 0 3
66 309 0 17 365 0 364 367 363 103 250 248 0 0 -17 359 0 364 363 368 163 123 247
 0 0 -17 165 0 369 102 162 163 363 289 0 356 -17 250 0 361 360 370 160 365 248 0
 0 +15 361 747 0 250 21 0 17 370 0 361 250 108 103 371 372 0 365 +17 108 0 361 3
70 360 106 362 243 0 373 +17 371 0 374 147 105 106 370 372 0 0 -16 372 547 0 ?37
0 375 376 377 0 0 1 16 375 531 0 ?378 379 372 380 0 0 1 16 376 455 0 ?198 372 38
1 382 0 0 1 30 377 411 0 372 380 382 0 +.006223 .01905 -.018923 -1 0 0 30 380 41
2 0 375 286 377 0 +-.006223 .01905 -.018923 0 0 1 30 382 410 0 376 377 383 0 +.0
06223 .01905 .018923 0 0 -1 30 383 409 0 381 382 384 0 +-.006223 .01905 .018923
 1 0 0 16 381 477 0 ?385 376 386 383 0 0 1 30 384 408 0 379 383 387 0 +.006223 .
0047625 .018923 0 0 -1 16 379 461 0 ?197 388 375 384 0 0 1 30 387 407 0 389 384
 390 0 +-.006223 .0047625 .018923 1 0 0 16 389 483 0 ?391 215 392 387 0 0 1 30 3
90 406 0 392 387 393 0 +-.006223 .0047625 -.018923 0 0 1 16 392 505 0 ?394 389 3
88 390 0 0 1 30 393 405 0 388 390 395 0 +.006223 .0047625 -.018923 -1 0 0 16 388
 499 0 ?396 392 379 393 0 0 1 31 395 397 0 397 393 398 0 +-467165324485087e-32 .
0047625 -.0127 0 -1 0 0 0 -1 .0020193 16 397 309 0 ?399 400 215 395 0 0 1 31 398
 396 0 400 395 401 0 +3469446951953615e-33 .0047625 0 0 -1 0 0 0 -1 .0020193 16
 400 308 0 ?402 403 397 398 0 0 1 31 401 223 0 403 398 404 0 +310485392973482e-3
2 0 .0127 0 1 0 0 0 1 .0020193 16 403 201 0 ?405 406 400 401 0 0 1 31 404 185 0
 406 401 407 0 +-467165324485087e-32 0 -.0127 0 1 0 0 0 1 .0020193 16 406 163 0
 ?408 409 403 404 0 0 1 31 407 147 0 409 404 410 0 +3469446951953615e-33 0 0 0 1
 0 0 0 1 .0020193 16 409 125 0 ?411 412 406 407 0 0 1 30 410 7 0 413 407 414 0 +
.0109855 .01905 .0236855 0 0 -1 16 413 1242 0 ?41 415 416 410 0 0 1 30 414 11 0
 415 410 417 0 +-.0109855 .01905 -.0236855 -1 0 0 16 415 1248 0 ?37 211 413 414
 0 0 1 30 417 15 0 211 414 212 0 +-.0109855 .01905 .0236855 0 0 1 16 211 1226 0
 ?418 207 415 417 0 0 1 30 212 19 0 207 417 419 0 +-.0109855 .01905 .0236855 1 0
 0 30 419 74 0 412 212 20 0 +.0109855 0 .0236855 0 0 -1 16 412 1188 0 ?420 421 4
09 419 0 0 1 30 20 73 0 421 419 422 423 +-.0109855 0 -.0236855 -1 0 0 16 421 120
0 0 ?34 424 412 20 0 0 1 30 422 72 0 424 20 216 0 +-.0109855 0 .0236855 0 0 1 14
1 423 425 426 427 20 133 425 42533 0 1 0 428 0 +20 .0078105 0 -.0236855 -.007810
5 0 -.0236855 -.018796 -.003175 141 426 5 429 423 20 141 427 428 423 430 20 133
 428 42534 0 1 425 431 0 +20 .0078105 0 -.0236855 -.0078105 0 -.0236855 -.018796
 -.003175 141 430 431 427 432 20 133 431 42535 0 1 428 433 0 +20 .0078105 0 -.02
36855 -.0078105 0 -.0236855 -.018796 -.003175 141 432 433 430 434 20 133 433 425
36 0 1 431 435 0 +20 .0078105 0 -.0236855 -.0078105 0 -.0236855 -.018796 -.00317
5 141 434 435 432 436 20 133 435 42537 0 1 433 437 0 +20 .0078105 0 -.0236855 -.
0078105 0 -.0236855 -.018796 -.003175 141 436 437 434 438 20 133 437 42538 0 1 4
35 439 0 +20 .0078105 0 -.0236855 -.0078105 0 -.0236855 -.018796 -.003175 141 43
8 439 436 440 20 133 439 42539 0 1 437 441 0 +20 .0078105 0 -.0236855 -.0078105
 0 -.0236855 -.018796 -.003175 141 440 441 438 442 20 133 441 42540 0 1 439 443
 0 +20 .0078105 0 -.0236855 -.0078105 0 -.0236855 -.018796 -.003175 141 442 444
 440 445 20 133 444 114698 0 1 446 447 0 +20 .0078105 0 -.0236855 -.0078105 0 -.
0236855 -.018796 -.003175 141 445 447 442 429 20 133 447 114699 0 1 444 19 0 +20
 .0078105 0 -.0236855 -.0078105 0 -.0236855 -.018796 -.003175 141 429 19 445 426
 20 133 19 114700 0 1 447 5 0 +20 .0078105 0 -.0236855 -.0078105 0 -.0236855 -.0
18796 -.003175 133 446 42544 0 1 448 444 0 +449 -.0109855 0 -.0205105 -.0078105
 0 -.0236855 4.71238898038469 6.28318530717959 133 448 42543 0 1 450 446 0 +449
 -.0109855 0 -.0205105 -.0078105 0 -.0236855 4.71238898038469 6.28318530717959 3
1 449 1217 0 451 452 453 454 +-.0078105 0 -.0205105 0 -1 0 0 0 -1 .003175 16 451
 1215 0 ?57 455 456 449 0 0 1 31 452 1212 0 456 457 449 0 +.0078105 0 -.0205105
 0 -1 0 0 0 -1 .003175 31 453 1222 0 455 449 458 0 +-.0078105 0 .0205105 0 -1 0
 0 0 -1 .003175 141 454 443 459 460 449 133 443 42541 0 1 441 450 0 +449 -.01098
55 0 -.0205105 -.0078105 0 -.0236855 4.71238898038469 6.28318530717959 141 459 4
46 461 454 449 141 460 450 454 461 449 133 450 42542 0 1 443 448 0 +449 -.010985
5 0 -.0205105 -.0078105 0 -.0236855 4.71238898038469 6.28318530717959 141 461 44
8 460 459 449 16 455 1220 0 ?63 462 451 453 0 0 1 30 458 1233 0 462 453 463 0 +-
.0109855 .01905 -.0205105 0 -1 0 16 462 1231 0 ?464 465 455 458 0 0 1 30 463 123
8 0 465 458 466 0 --.0109855 .01905 .0205105 0 -1 0 16 465 1236 0 ?51 467 462 46
3 0 0 1 31 466 1255 0 467 463 468 0 -.0078105 .01905 .0205105 0 -1 0 0 0 -1 .003
175 16 467 1253 0 ?48 43 465 466 0 0 1 31 468 1260 0 43 466 469 0 -.0078105 .019
05 -.0205105 0 -1 0 0 0 -1 .003175 16 43 1258 0 ?38 470 467 468 0 0 1 31 469 126
5 0 470 468 471 0 --.0078105 .01905 -.0205105 0 -1 0 0 0 -1 .003175 16 470 1263
 0 ?54 472 43 469 0 0 1 31 471 1270 0 472 469 473 0 --.0078105 .01905 .0205105 0
 -1 0 0 0 -1 .003175 16 472 1268 0 ?78 474 470 471 0 0 1 30 473 1275 0 474 471 4
75 0 +.0078105 .01905 -.0236855 0 -1 0 16 474 1273 0 ?476 36 472 473 0 0 1 30 47
5 1280 0 36 473 25 0 --.0078105 .01905 -.0236855 0 -1 0 16 36 1278 0 ?30 29 474
 475 0 0 1 30 25 1285 0 29 475 9 0 +.0109855 .01905 .0205105 0 -1 0 16 29 1283 0
 ?477 12 36 25 0 0 1 17 477 0 478 420 479 70 480 29 0 481 +15 478 89 0 420 482 0
 17 420 0 478 28 477 67 481 412 0 483 +17 479 0 478 477 28 44 41 413 0 480 -17 4
80 0 484 485 72 44 477 29 0 0 -17 481 0 486 81 69 70 420 412 0 0 -15 486 49 0 48
7 488 489 17 81 0 486 487 481 79 72 490 0 491 +17 69 0 486 481 492 67 60 456 0 4
20 +17 492 0 486 69 57 58 34 421 0 0 -17 60 0 493 494 483 58 69 456 0 476 -16 45
6 1210 0 ?69 451 490 452 0 0 1 16 490 1205 0 ?81 456 495 457 0 0 1 16 495 1182 0
 ?496 490 322 497 0 0 1 31 457 1207 0 490 497 452 0 +.0078105 0 .0205105 0 -1 0
 0 0 -1 .003175 30 497 1184 0 495 324 457 0 +-.0078105 .01905 .0236855 0 -1 0 30
 324 1179 0 322 316 497 0 -.0078105 .01905 .0236855 0 -1 0 16 322 1177 0 ?75 495
 190 324 0 0 1 17 75 0 498 499 491 73 500 322 0 210 +15 498 83 0 499 501 0 17 49
9 0 498 496 75 76 210 207 0 502 -17 491 0 498 75 496 79 487 416 0 500 +17 500 0
 484 72 485 79 75 322 0 0 -17 210 0 40 48 78 73 499 207 0 485 +15 40 4 0 418 503
 0 17 48 0 40 41 210 44 485 467 0 479 +17 78 0 40 210 418 76 504 472 0 499 +17 4
85 0 484 500 480 73 48 467 0 0 -15 484 1372 0 485 23 0 14 23 1371 505 ?0 506 484
 7 8 +0 0 0 506 27 81 1 505 156807 507 23 508 0 327 509 510 14 506 1350 509 ?23
 511 493 7 24 +0 0 23 511 27 13 27 34 0 0 0 0 0 0 11 21 14 21 748 512 ?513 0 361
 7 514 -515 515 513 0 27 81 1 512 156809 507 21 516 0 509 517 518 14 513 740 517
 ?503 21 519 7 276 -282 282 503 21 27 50 514 392 0 515 283 520 0 +.006223 -.0398
399627509866 -.018923 0 0 -1 -1 0 0 14 515 376 521 ?522 194 358 7 514 -21 21 522
 194 27 81 1 521 156811 507 515 523 0 517 524 525 14 522 380 524 ?282 515 526 7
 283 -0 0 282 515 27 14 194 372 527 ?515 528 529 7 520 -0 0 515 528 27 15 358 37
9 0 246 515 0 17 246 0 358 356 530 100 205 244 0 0 +17 530 0 358 246 123 124 396
 388 0 205 -17 205 0 186 203 265 124 246 244 0 0 -17 265 0 186 205 362 100 168 1
91 0 246 +17 362 0 186 265 373 166 108 243 0 0 -17 168 0 369 162 102 166 265 191
 0 360 -15 369 798 0 102 279 0 17 162 0 369 165 168 160 360 357 0 363 -17 102 0
 369 168 165 100 356 355 0 265 -14 279 794 531 ?274 204 532 7 260 -274 274 274 2
04 27 81 1 531 156814 507 279 533 0 527 534 535 14 204 660 534 ?279 309 186 7 25
9 -0 0 279 309 27 15 532 797 0 536 279 369 17 536 0 532 536 536 0 354 353 0 0 -1
7 354 0 537 354 354 0 536 353 0 0 +15 537 761 0 354 538 32 14 538 88 539 ?540 48
2 537 7 541 -0 0 540 482 27 15 32 87 0 34 538 0 17 34 0 32 30 476 55 492 421 0 3
5 +17 476 0 32 34 33 58 494 474 0 492 +17 35 0 542 66 543 55 30 36 0 0 -15 542 1
330 0 543 511 0 17 66 0 542 544 35 64 57 451 0 464 -17 543 0 542 35 544 13 54 47
0 0 0 -17 544 0 542 543 66 52 464 462 0 0 -17 54 0 40 418 37 52 543 470 0 545 +1
7 418 0 40 78 54 49 545 211 0 504 +17 37 0 40 54 38 13 33 415 0 543 +17 545 0 54
6 464 51 52 418 211 0 544 -15 546 85 0 547 540 0 17 464 0 546 547 545 64 544 462
 0 548 +17 51 0 546 545 547 49 549 465 0 418 +17 547 0 546 51 464 61 548 424 0 5
49 +17 549 0 550 84 504 61 51 465 0 0 -15 550 1309 0 504 551 0 17 84 0 550 502 5
49 82 63 455 0 496 -17 504 0 550 549 502 49 78 472 0 0 -17 502 0 550 504 84 76 4
96 495 0 0 -17 496 0 498 491 499 82 502 495 0 487 +17 487 0 486 63 81 82 491 416
 0 0 -17 63 0 486 548 487 61 84 455 0 547 +16 416 1166 0 ?491 413 424 216 0 0 1
 16 424 1194 0 ?547 416 421 422 0 0 1 30 216 71 0 416 422 213 0 +-.0109855 0 .02
36855 1 0 0 17 548 0 486 57 63 64 547 424 0 0 -17 57 0 486 492 548 55 66 451 0 3
4 +14 551 1308 552 ?511 281 550 7 272 +0 0 511 281 27 81 1 552 156817 507 551 55
3 0 539 554 555 14 511 1329 554 ?506 551 542 7 556 +0 0 506 551 27 14 281 1048 5
57 ?551 328 558 7 275 -328 328 551 328 27 51 272 1320 0 551 259 556 0 +-.0078105
 .01905 .0205105 0 -1 0 .003175 0 0 -1 51 556 1341 0 511 272 24 0 +-.0078105 .01
905 -.0205105 0 -1 0 .003175 0 0 -1 51 24 1362 0 506 556 8 0 +.0078105 .01905 -.
0205105 0 -1 0 .003175 0 0 -1 81 1 557 156819 507 281 559 0 554 560 561 14 328 1
053 560 ?281 325 562 7 275 -281 281 281 325 27 15 558 1051 0 563 281 564 17 563
 0 558 563 563 0 565 566 0 0 +15 564 1052 0 567 281 0 17 567 0 564 567 567 0 349
 347 0 0 -17 349 0 529 349 349 0 567 347 0 0 +15 529 919 0 349 194 193 17 565 0
 568 565 565 0 563 566 0 0 -16 566 1045 0 ?563 201 569 570 0 0 1 16 201 1041 0 ?
571 185 566 572 0 0 1 16 569 1006 0 ?573 566 574 575 0 0 1 31 570 1092 0 566 576
 572 0 +.0109855 .0127 0 1 0 0 0 0 -1 .0020193 31 576 1093 0 577 578 570 0 +-.01
09855 .0127 -.0127 1 0 0 0 0 -1 .0020193 31 572 1091 0 201 570 202 0 +-.0109855
 .0127 0 1 0 0 0 0 -1 .0020193 31 202 1090 0 185 572 579 0 +.006223 .0127 -.0127
 1 0 0 0 0 -1 .0020193 38 579 1089 0 200 202 344 0 +271 267 580 581 581 582 16 2
00 971 0 ?583 584 185 579 0 0 1 31 344 1088 0 584 579 336 0 +-.006223 .0127 -.01
27 -1 0 0 0 0 1 .0020193 40 21 580 0 1 21 .000151875447218565 .3721048645489605
 ??-.00619010345166484 .0127 -.0147193 -.00620212925496146 .0120327551578089 -.0
1460587429033748 -.00622153731081208 .011440702450209 -.01427852531531502 -.0062
0720115971397 .0109893101642386 -.01377289923842952 -.00611906581720342 .0107363
9100143482 -.01317096941594316 -.00594590566809757 .01068557948471878 -.01255970
574632522 -.00568739763495235 .01081872909262356 -.01196624781904308 -.005342039
15313015 .0111540155176105 -.01140096017373952 -.00495407263214473 .011739471543
23782 -.01092377997597424 -.0047669032354555 .01224424778999332 -.01073280341270
272 -.00471210771808098 .01271793861115 -.01068077968110708 -.00477545762755943
 .01319009007999806 -.01074107575350972 -.00498544359234171 .01372123188619196 -
.01095797304136106 -.00536576718968477 .01427367247581232 -.01143464335902056 -.
00574882059422537 .01462459719423744 -.012088855066344 -.00600749778408705 .0147
188186063711 -.0127440899599666 -.00616609708664877 .014584085052122 -.013426495
70292636 -.00621973224652301 .01425841041970882 -.01398410648068724 -.0062165509
218958 .01377676103561232 -.014408261737026 -.00619611759243835 .013161721339536
64 -.0146658041343472 -.00619010345166484 .0127 -.0147193 41 1 581 H?-.006190103
45166484 .0127 -.0147193 204 84 582 4 4.82999321891493 -.0525399627509866 0 .004
79539654833515 4.8060427383104 -.0518727179087955 5.94642222019861 .004783370745
03854 4.73717373622594 -.0512806652011956 5.6098066040129 .00476396268918791 4.6
3091287907049 -.0508292729152252 5.27254969631755 .00477829884028602 4.503088751
86607 -.0505763537524214 4.94779106514213 .00486643418279658 4.36958974147923 -.
0505255422357054 4.64285628763235 .00503959433190242 4.233565413445635 -.0506586
918436102 4.340506826354025 .00529810236504765 4.094358684561265 -.0509939782685
971 4.01357260155127 .00564346084686985 3.965135966261695 -.0515794342942244 3.6
3732273626966 .00603142736785526 3.90898095067937 -.0520842105409799 3.369252238
960735 .00621859676454449 3.893115579084705 -.0525579013621366 3.13270895770268
 .00627339228191902 3.911479632347435 -.0530300528309847 2.896441505450235 .0062
1004237244057 3.974879562707225 -.0535611946371786 2.611358224244855 .0060000564
0765828 4.10300997848418 -.0541136352267989 2.248019384997415 .00561973281031523
 4.262360629748105 -.054464559945224 1.87827012226043 .00523667940577463 4.41041
134760673 -.0545587813573577 1.54896031236992 .00497800221591294 4.5576505733145
7 -.0544240478031086 1.20276850639174 .00481940291335122 4.67534249763756 -.0540
983731706954 .881600650778426 .00476576775347699 4.76443593725463 -.053616723786
5989 .562419768427904 .0047689490781042 4.8186896696784 -.0530016840905232 .2306
949903297995 .00478938240756164 4.82999321891493 -.0525399627509866 0 .004795396
54833516 16 584 972 0 ?585 343 200 344 0 0 1 17 585 0 586 114 238 175 93 584 0 3
66 +16 343 1010 0 ?587 335 584 336 0 0 1 17 587 0 586 117 242 172 90 343 0 588 +
15 586 383 0 238 522 0 17 117 0 586 589 587 115 588 239 0 394 +17 242 0 586 587
 378 88 590 240 0 0 +17 90 0 591 174 174 88 587 343 0 321 -17 588 0 311 321 592
 172 117 239 0 0 -15 311 619 0 588 305 0 17 321 0 311 590 588 88 174 190 0 242 +
17 592 0 311 588 593 115 132 231 0 0 -16 239 887 0 ?117 240 236 237 240 240 1 17
 593 0 311 592 303 130 223 221 0 0 -17 132 0 594 391 394 130 592 231 0 595 +15 5
94 365 0 391 528 0 17 391 0 594 144 132 127 595 389 0 596 +17 394 0 594 132 120
 115 589 392 0 592 +17 595 0 597 223 129 130 391 389 0 593 -15 597 387 0 223 282
 0 17 223 0 597 598 595 97 593 221 0 0 +17 129 0 597 595 598 127 599 224 0 391 +
17 598 0 597 129 223 154 99 304 0 599 +17 599 0 600 601 596 154 129 224 0 0 -16
 224 732 0 ?129 225 221 222 225 225 1 15 600 598 0 602 310 0 17 601 0 600 603 59
9 151 156 386 0 227 +17 596 0 600 599 604 127 144 233 0 0 -17 604 0 600 596 341
 142 219 217 0 0 -17 144 0 594 197 391 142 596 233 0 195 +17 197 0 594 126 144 1
39 195 379 0 203 +17 195 0 193 219 141 142 197 379 0 604 -17 219 0 193 346 195 8
5 604 217 0 0 +17 346 0 193 150 219 169 87 342 0 602 +17 150 0 193 198 346 148 6
02 209 0 605 +17 87 0 606 171 171 85 346 342 0 341 -17 602 0 600 341 605 169 150
 209 0 0 -17 341 0 600 604 602 85 171 335 0 219 +17 605 0 600 602 603 148 135 25
1 0 607 -16 209 898 0 ?150 217 199 214 217 217 1 17 603 0 600 605 601 133 227 22
5 0 0 -17 135 0 374 608 607 133 605 251 0 385 +17 607 0 374 135 147 148 198 376
 0 0 -15 374 288 0 371 503 40 17 147 0 374 607 371 145 373 257 0 198 +17 198 0 1
93 189 150 145 607 376 0 187 +17 187 0 186 373 181 145 189 199 0 0 -17 373 0 186
 362 187 106 147 257 0 371 -14 503 198 609 ?488 513 374 7 610 -0 0 488 513 27 81
 1 609 156821 507 503 611 0 560 612 613 14 488 192 612 ?482 503 614 7 615 +0 0 4
82 503 27 50 610 3 0 503 616 615 0 +0 .01905 0 0 -1 0 0 0 -1 51 616 144 0 617 61
8 610 0 -3469446951953615e-33 .01905 0 0 -1 0 .0020193 0 0 -1 50 615 70 0 488 61
0 619 0 +0 0 0 0 -1 0 0 0 -1 50 619 91 0 501 615 620 0 +-.0109855 .01905 .023685
5 0 0 -1 -1 0 0 14 501 84 621 ?617 540 622 7 619 -0 0 617 540 27 50 620 92 0 540
 619 541 0 +-.0109855 .01905 .0236855 1 0 0 0 0 -1 14 540 86 623 ?501 538 624 7
 620 -0 0 501 538 27 50 541 93 0 538 620 312 0 +-.0109855 .01905 -.0236855 0 0 1
 1 0 0 50 312 94 0 482 541 306 0 +.0109855 .01905 .0236855 -1 0 0 0 0 1 14 482 9
0 625 ?538 488 626 7 312 -0 0 538 488 27 81 1 625 156825 507 482 627 0 623 628 6
29 15 626 962 0 630 482 631 17 630 0 626 630 630 0 632 633 0 0 -15 631 956 0 634
 482 568 17 634 0 631 634 634 0 635 574 0 0 -15 568 950 0 565 482 478 17 635 0 3
30 635 635 0 634 574 0 0 +16 574 1011 0 ?635 569 577 636 0 0 1 16 577 968 0 ?637
 574 633 576 0 0 1 31 636 1096 0 574 0 575 0 +.0109855 .0127 .0127 1 0 0 0 0 -1
 .0020193 31 575 1095 0 569 636 578 0 +-.0109855 .0127 .0127 1 0 0 0 0 -1 .00201
93 31 578 1094 0 633 575 576 0 +.0109855 .0127 -.0127 1 0 0 0 0 -1 .0020193 16 6
33 975 0 ?632 577 0 578 0 0 1 17 632 0 638 632 632 0 630 633 0 0 +15 638 990 0 6
32 184 180 14 184 987 628 ?331 274 638 7 267 -331 331 331 274 27 81 1 628 156826
 507 184 639 0 625 640 641 14 331 982 640 ?329 184 642 7 267 -184 184 329 184 27
 81 1 640 156827 507 331 643 0 628 644 645 14 329 1023 644 ?325 331 646 7 317 -3
25 325 325 331 27 15 642 985 0 647 331 648 17 647 0 642 647 647 0 637 577 0 0 -1
5 648 986 0 177 331 0 17 177 0 648 93 93 175 583 200 0 585 -17 93 0 648 177 177
 91 585 584 0 583 -17 583 0 364 649 366 91 177 200 0 238 +17 649 0 364 368 583 1
18 238 236 0 0 -17 366 0 364 583 367 175 114 235 0 0 -17 238 0 586 585 589 91 64
9 236 0 0 +17 589 0 586 238 117 118 394 392 0 649 -17 367 0 364 366 365 112 105
 255 0 650 -17 114 0 586 378 585 112 366 235 0 367 +16 235 877 0 ?114 236 233 23
4 236 236 1 17 378 0 586 242 114 109 650 375 0 590 +17 650 0 374 105 111 112 378
 375 0 0 -17 590 0 311 651 321 109 242 240 0 0 -17 651 0 311 652 590 136 111 253
 0 608 -17 652 0 311 303 651 157 138 220 0 0 -17 111 0 374 650 608 109 651 253 0
 378 +17 608 0 374 111 135 136 385 381 0 0 -17 385 0 519 227 138 133 608 381 0 6
03 +15 519 739 0 227 513 0 17 227 0 519 653 385 151 603 225 0 0 +17 138 0 519 38
5 653 136 652 220 0 651 +17 653 0 519 138 227 157 153 654 0 652 +16 220 722 0 ?1
38 221 217 218 221 221 1 17 153 0 655 156 159 151 653 654 0 601 -16 654 769 0 ?6
53 386 304 297 304 304 1 16 386 768 0 ?601 381 654 286 0 0 1 16 304 767 0 ?598 6
54 296 297 654 654 1 38 286 815 0 386 297 380 0 +306 260 656 657 658 659 40 6 65
6 0 1 6 .0001143788523655362 .338704443793082 ??.0014605 .01130554231329882 .018
923 .00183918195782976 .01186634406617988 .01890792100774875 .002011311257689385
 .01252055776781382 .01889104047740875 .00195760995423981 .01319531379655852 .01
88969847665115 .001685656669015095 .01381181567006628 .01891767465775625 .001460
5 .01409445768670118 .018923 41 1 657 L?.0014605 .01130554231329882 .018923 41 1
 658 L?.0014605 .01409445768670118 .018923 204 24 659 4 3.141592653589795 -.0511
455050642854 5.52091552055697 .0426085 3.061995357068675 -.0517063068171665 5.85
761089866668 .04259342100774875 3.02567734082464 -.0523605205188004 6.1942043517
0952 .04257654047740875 3.03702213522388 -.0530352765475451 .2478186665092245 .0
425824847665115 3.09429803340683 -.0536517784210529 .583076356938664 .0426031746
577562 3.141592653589795 -.0539344204376878 .76226978662262 .0426085 15 655 793
 0 99 274 0 17 156 0 655 99 153 154 601 386 0 598 -17 159 0 655 153 99 157 303 2
96 0 653 -17 99 0 655 159 156 97 598 304 0 303 -17 303 0 311 593 652 97 159 296
 0 223 +17 105 0 374 371 650 103 367 255 0 370 +17 368 0 364 359 649 121 120 229
 0 0 -17 120 0 594 394 396 118 368 229 0 589 +17 396 0 594 120 126 121 530 388 0
 368 +17 126 0 594 396 197 124 203 206 0 530 +17 637 0 624 637 637 0 647 577 0 0
 +15 624 944 0 637 540 660 15 660 938 0 573 540 661 17 573 0 660 573 573 0 662 5
69 0 0 +15 661 932 0 571 540 546 17 571 0 661 571 571 0 663 201 0 0 +17 663 0 56
2 663 663 0 571 201 0 0 -15 562 1056 0 663 328 664 15 664 1057 0 665 328 0 17 66
5 0 664 665 665 0 666 323 0 0 -17 666 0 526 666 666 0 665 323 0 0 +16 323 1044 0
 ?666 347 342 316 0 0 1 15 526 905 0 666 522 586 17 662 0 646 662 662 0 573 569
 0 0 -15 646 1026 0 662 329 591 15 591 1027 0 174 329 0 17 174 0 591 90 90 172 3
21 190 0 587 -81 1 644 156828 507 329 667 0 640 668 669 80 255 1 507 670 671 900
0 1 1 1 1 1 1 1 1 0 FFFFTFTFFFFFFF1 81 1 667 156730 672 329 0 644 643 673 674 81
 1 668 156829 507 617 675 0 644 676 677 82 255 1 669 2097545439 14 617 131 668 ?
678 501 679 7 616 +0 0 678 501 27 81 1 675 156714 672 617 0 668 680 681 682 81 1
 676 156830 507 678 681 0 668 683 684 82 1 677 1847984346 14 678 169 676 ?685 61
7 686 7 618 +0 0 685 617 27 81 1 681 156715 672 678 0 676 675 687 688 81 1 683 1
56831 507 685 687 0 676 689 690 82 1 684 1852047578 14 685 207 683 ?528 678 691
 7 692 +0 0 528 678 27 81 1 687 156716 672 685 0 683 681 693 694 81 1 689 156832
 507 528 693 0 683 695 696 82 1 690 1856110810 14 528 360 689 ?194 685 697 7 698
 -0 0 194 685 27 81 1 693 156717 672 528 0 689 687 699 700 81 1 695 156833 507 3
10 701 0 689 702 703 82 1 696 1953824987 14 310 597 695 ?305 282 600 7 306 -0 0
 305 282 27 81 1 701 156722 672 310 0 695 704 705 706 81 1 702 156834 507 309 70
7 0 695 708 709 82 1 703 1992884447 14 309 639 702 ?204 305 364 7 271 -0 0 204 3
05 27 81 1 707 156724 672 309 0 702 705 710 711 81 1 708 156835 507 282 704 0 70
2 0 712 82 1 709 1996816607 14 282 384 708 ?310 522 597 7 276 -513 513 310 522 2
7 81 1 704 156721 672 282 0 708 713 701 714 82 1 712 1968439517 80 1 672 0 715 8
001 0 0 0 0 3 5 0 0 0 FFFFTFTFFFFFFF2 81 1 713 156720 672 522 0 524 523 704 716
 83 255 3 714 .792156862745098 .819607843137255 .933333333333333 81 1 524 156812
 507 522 713 0 521 527 717 81 1 523 156719 672 515 0 521 699 713 718 83 3 716 .7
92156862745098 .819607843137255 .933333333333333 81 1 699 156718 672 194 0 527 6
93 523 719 83 3 718 .792156862745098 .819607843137255 .933333333333333 81 1 527
 156813 507 194 699 0 524 531 720 83 3 719 .792156862745098 .819607843137255 .93
3333333333333 82 1 720 1964703967 82 1 717 1967980767 79 255 15 715 SDL/TYSA_COL
OUR81 1 705 156723 672 305 0 308 701 707 721 81 1 710 156725 672 204 0 534 707 5
33 722 83 3 711 .792156862745098 .819607843137255 .933333333333333 81 1 534 1568
15 507 204 710 0 531 539 723 81 1 533 156726 672 279 0 531 710 724 725 83 3 722
 .792156862745098 .819607843137255 .933333333333333 81 1 724 156727 672 274 0 27
8 533 639 726 83 3 725 .792156862745098 .819607843137255 .933333333333333 81 1 2
78 156804 507 274 724 0 0 308 727 81 1 639 156728 672 184 0 628 724 643 728 83 3
 726 .792156862745098 .819607843137255 .933333333333333 81 1 643 156729 672 331
 0 640 639 667 729 83 3 728 .792156862745098 .819607843137255 .933333333333333 8
3 3 729 .792156862745098 .819607843137255 .933333333333333 81 1 308 156805 507 3
05 705 0 278 327 730 82 1 727 2037776605 81 1 327 156806 507 325 673 0 308 505 7
31 82 1 730 1994850527 81 1 673 156731 672 325 0 327 667 732 733 82 1 731 209865
9551 81 1 732 156732 672 328 0 560 673 559 734 83 3 733 .792156862745098 .819607
843137255 .933333333333333 81 1 560 156820 507 328 732 0 557 609 735 81 1 559 15
6733 672 281 0 557 732 553 736 83 3 734 .792156862745098 .819607843137255 .93333
3333333333 81 1 553 156734 672 551 0 552 559 737 738 83 3 736 .792156862745098 .
819607843137255 .933333333333333 81 1 737 156735 672 511 0 554 553 739 740 83 3
 738 .792156862745098 .819607843137255 .933333333333333 81 1 554 156818 507 511
 737 0 552 557 741 81 1 739 156736 672 506 0 509 737 508 742 83 3 740 .792156862
745098 .819607843137255 .933333333333333 81 1 509 156808 507 506 739 0 505 512 7
43 81 1 508 156737 672 23 0 505 739 0 744 83 3 742 .792156862745098 .81960784313
7255 .933333333333333 83 3 744 .792156862745098 .819607843137255 .93333333333333
3 82 1 743 2118254816 82 1 741 2116288736 82 1 735 2101543135 81 1 539 156816 50
7 538 745 0 534 552 746 82 1 723 1998782687 81 1 745 156711 672 538 0 539 627 74
7 748 82 1 746 1842872544 81 1 627 156710 672 482 0 625 749 745 750 81 1 747 156
712 672 540 0 623 745 680 751 83 3 748 .792156862745098 .819607843137255 .933333
333333333 81 1 623 156824 507 540 747 0 621 625 752 81 1 680 156713 672 501 0 62
1 747 675 753 83 3 751 .792156862745098 .819607843137255 .933333333333333 81 1 6
21 156823 507 501 680 0 612 623 754 83 3 753 .792156862745098 .819607843137255 .
933333333333333 81 1 612 156822 507 488 749 0 609 621 755 82 1 754 1842348256 81
 1 749 156709 672 488 0 612 611 627 756 82 1 755 1860436192 81 1 611 156708 672
 503 0 609 757 749 758 83 3 756 .792156862745098 .819607843137255 .9333333333333
33 81 1 757 156707 672 513 0 517 516 611 759 83 3 758 .792156862745098 .81960784
3137255 .933333333333333 81 1 517 156810 507 513 757 0 512 521 760 81 1 516 1567
06 672 21 0 512 0 757 761 83 3 759 .792156862745098 .819607843137255 .9333333333
33333 83 3 761 .792156862745098 .819607843137255 .933333333333333 82 1 760 20413
81085 82 1 752 1842610400 83 3 750 .792156862745098 .819607843137255 .9333333333
33333 83 3 721 .792156862745098 .819607843137255 .933333333333333 83 3 706 .7921
56862745098 .819607843137255 .933333333333333 83 3 700 .792156862745098 .8196078
43137255 .933333333333333 15 697 362 0 402 528 762 50 698 390 0 528 520 692 0 +0
 .0047625 0 0 -1 0 0 0 -1 50 520 391 0 194 514 698 0 +.006223 -.0398399627509866
 .018923 1 0 0 0 0 -1 51 692 220 0 685 698 618 0 -310485392973482e-32 .01905 .01
27 0 -1 0 .0020193 0 0 -1 51 618 182 0 678 692 616 0 --467165324485087e-32 .0190
5 -.0127 0 -1 0 .0020193 0 0 -1 17 402 0 697 402 402 0 763 400 0 0 +15 762 363 0
 399 528 764 17 399 0 762 399 399 0 765 397 0 0 +15 764 364 0 766 528 594 17 766
 0 764 766 766 0 767 215 0 0 +17 767 0 691 767 767 0 766 215 0 0 -16 215 310 0 ?
766 397 389 213 0 0 1 15 691 273 0 767 685 768 15 768 211 0 769 685 0 17 769 0 7
68 769 769 0 405 403 0 0 -17 405 0 770 405 405 0 769 403 0 0 +15 770 189 0 405 4
88 0 17 765 0 686 765 765 0 399 397 0 0 -15 686 279 0 765 678 771 15 771 173 0 7
72 678 0 17 772 0 771 772 772 0 408 406 0 0 -17 408 0 614 408 408 0 772 406 0 0
 +15 614 151 0 408 488 486 17 763 0 679 763 763 0 402 400 0 0 -15 679 284 0 763
 617 773 15 773 135 0 774 617 0 17 774 0 773 774 774 0 411 409 0 0 -17 411 0 489
 411 411 0 774 409 0 0 +15 489 113 0 411 488 770 83 3 694 .792156862745098 .8196
07843137255 .933333333333333 83 3 688 .792156862745098 .819607843137255 .9333333
33333333 83 3 682 .792156862745098 .819607843137255 .933333333333333 83 3 674 .7
92156862745098 .819607843137255 .933333333333333 79 14 671 SWEntUnchanged82 1 64
5 2094334175 82 1 641 2093220063 15 330 1021 0 635 325 606 15 606 1022 0 171 325
 0 17 171 0 606 87 87 169 341 335 0 346 -82 1 629 1843134688 15 622 755 0 775 50
1 498 17 775 0 622 775 775 0 352 350 0 0 -17 352 0 280 352 352 0 775 350 0 0 +15
 280 792 0 352 274 655 82 1 613 1860960480 82 1 561 2102132959 82 1 555 21143226
56 17 33 0 32 476 30 31 37 415 0 494 -17 494 0 493 42 60 31 476 474 0 0 -15 493
 1351 0 42 506 0 17 42 0 493 483 494 39 38 43 0 0 -17 483 0 493 60 42 67 28 12 0
 0 -17 28 0 478 479 420 39 483 12 0 41 +17 41 0 40 38 48 39 479 413 0 42 +82 1 5
35 2035941597 16 243 701 0 ?108 244 240 241 244 244 1 17 123 0 358 530 356 121 3
59 247 0 396 +16 247 712 0 ?123 248 244 245 248 248 1 50 283 393 0 522 276 514 0
 +-.006223 -.0398399627509866 -.018923 -1 0 0 0 0 1 82 1 525 1967194333 82 1 518
 2042167517 82 1 510 2120220896 17 72 0 484 480 500 70 81 490 0 477 -141 332 192
 776 776 267 141 776 579 332 332 267 141 314 288 777 777 271 141 777 579 314 314
 271 141 313 286 778 778 306 141 778 334 313 313 306 40 6 292 0 1 6 .00011437885
23655374 .338704443793083 ??-.0014605 .01130554231329882 -.018923 -.001839181957
829755 .01186634406617986 -.01890792100774875 -.002011311257689385 .012520557767
81382 -.01889104047740875 -.00195760995423981 .0131953137965585 -.01889698476651
15 -.0016856566690151 .01381181567006628 -.0189176746577562 -.0014605 .014094457
6867012 -.018923 41 1 293 L?-.0014605 .01130554231329882 -.018923 41 1 294 L?-.0
014605 .0140944576867012 -.018923 204 24 295 4 0 -.0511455050642854 3.9038624402
12415 .0047625 6.20358801065847 -.0517063068171665 3.567167062102705 .0047775789
9225124 6.16726999441443 -.0523605205188004 3.23057360905986 .00479445952259125
 6.17861478881367 -.0530352765475451 2.893773987080575 .00478851523348848 6.2358
9068699662 -.0536517784210529 2.558516296651135 .00476782534224378 5919003986272
57e-30 -.0539344204376878 2.37932286696717 .0047625 141 273 258 779 779 259 141
 779 192 273 273 259 40 21 268 0 1 21 .000151875447218565 .372104864548962 ??.00
619010345166485 .0127 -.0147193 .00620212925496146 .0133672448421911 -.014605874
29033748 .00622153731081209 .013959297549791 -.01427852531531502 .00620720115971
398 .0144106898357614 -.01377289923842952 .00611906581720342 .01466360899856518
 -.01317096941594316 .00594590566809758 .01471442051528122 -.01255970574632522 .
00568739763495235 .01458127090737644 -.01196624781904308 .00534203915313015 .014
2459844823895 -.01140096017373952 .00495407263214473 .01366052845676216 -.010923
77997597424 .00476690323545551 .01315575221000666 -.01073280341270272 .004712107
71808098 .01268206138885002 -.01068077968110708 .00477545762755943 .012209909920
00194 -.01074107575350972 .00498544359234171 .01167876811380804 -.01095797304136
106 .00536576718968476 .0111263275241877 -.01143464335902056 .00574882059422536
 .01077540280576256 -.01208885506634398 .00600749778408705 .0106811813936289 -.0
127440899599666 .00616609708664878 .010815914947878 -.01342649570292634 .0062197
3224652301 .01114158958029116 -.01398410648068724 .0062165509218958 .01162323896
438766 -.014408261737026 .00619611759243836 .01223827866046336 -.014665804134347
2 .00619010345166484 .0127 -.0147193 41 1 269 H?.00619010345166484 .0127 -.01471
93 204 84 270 4 1.453192088264652 -.0525399627509866 0 .01717560345166485 1.4771
42568869184 -.0532072075931777 .3367630869809745 .01718762925496145 1.5460115709
5365 -.0537992603007776 .673378703166685 .0172070373108121 1.652272428109095 -.0
54250652586748 1.01063561086204 .01719270115971395 1.78009655531352 -.0545035717
495518 1.33539424203745 .0171045658172034 1.913595565700355 -.0545543832662678 1
.640329019547235 .01693140566809755 2.049619893733955 -.054421233658363 1.942678
48082556 .01667289763495235 2.188826622618325 -.0540859472333761 2.2696127056283
15 .01632753915313015 2.318049340917895 -.0535004912077488 2.64586257090993 .015
93957263214475 2.374204356500215 -.0529957149609933 2.91393306821885 .0157524032
354555 2.39006972809488 -.0525220241398366 3.150476349476905 .015697607718081 2.
37170567483215 -.0520498726709885 3.38674380172935 .0157609576275594 2.308305744
472365 -.0515187308647946 3.67182708293473 .0159709435923417 2.18017532869541 -.
0509662902751743 4.035165922182165 .01635126718968475 2.020824677431485 -.050615
3655567492 4.40491518491915 .01673432059422535 1.87277395957286 -.05052114414461
55 4.73422499480966 .01699299778408705 1.725534733865015 -.0506558776988646 5.08
041680078785 .01715159708664875 1.607842809542025 -.0509815523312778 5.401584656
40116 .017205232246523 1.51874936992496 -.0514632017153743 5.72076553875168 .017
2020509218958 1.46449563750119 -.05207824141145 6.05249031684979 .01718161759243
835 1.453192088264652 -.0525399627509866 0 .01717560345166485 19 22 100 0 1 0 11
 7 S0 50 18 268 0 1 780 4 0 +0 .0047625 0 0 -1 0 0 0 -1 50 780 267 0 1 781 18 0
 +0 .0047625 0 0 -1 0 0 0 -1 50 781 266 0 1 0 780 0 +0 .0047625 0 0 -1 0 0 0 -1
 74 4 CI16 index_map_offset0 0 1 dCCZ20 17 7 0 0 782 783 708 784 15 508 2 0 0 0
 0 0 0 0 0 0 0 0 0 0 81 2 782 111 785 1 0 783 0 0 0 786 81 2 783 248 787 1 782 7
84 0 0 0 788 81 2 784 1441 789 1 783 15 0 0 0 790 81 2 15 156704 791 1 784 2 0 0
 0 0 80 2 791 792 793 9000 0 0 0 0 3 5 0 0 0 FFTFFFFFFFFFFF9 1 79 16 793 BODY_RE
CIPE_200180 2 789 794 795 9000 0 0 0 0 3 5 0 0 0 FFTFFFFFFFFFFF9 1 82 1 790 1 79
 24 795 BODY_IN_LIGHTWEIGHT_PERM80 2 787 796 797 9000 0 0 0 0 3 5 0 0 0 FFTFFFFF
FFFFFF9 1 82 1 788 88 79 30 797 LAST_BODY_MODIFYING_FEATURE_ID80 2 785 798 799 9
000 0 0 0 0 3 5 0 0 0 FFTFFFFFFFFFFT9 1 82 1 786 186 79 19 799 ENT_TIME_STAMP_20
0180 2 14 800 801 9000 0 0 0 0 3 5 0 0 0 FFTFFFFFFFFFFF9 1 82 1 16 103 79 12 801
 ATOM_ID_20011 0 
